<?xml version="1.0" encoding="UTF-8"?>
<svg width="1046px" height="103px" viewBox="0 0 1046 103" version="1.1" xmlns="http://www.w3.org/2000/svg" xmlns:xlink="http://www.w3.org/1999/xlink">
    <!-- Generator: Sketch 46.2 (44496) - http://www.bohemiancoding.com/sketch -->
    <title>Group</title>
    <desc>Created with Sketch.</desc>
    <defs></defs>
    <g id="Web" stroke="none" stroke-width="1" fill="none" fill-rule="evenodd">
        <g id="EconGraphs-Center-Copy-2" transform="translate(-99.000000, -123.000000)">
            <g id="Group" transform="translate(99.000000, 123.000000)">
                <path d="M195.624,101 L195.624,82.5 L146.784,82.5 L146.784,60.004 L194.588,60.004 L194.588,41.504 L146.784,41.504 L146.784,20.784 L195.624,20.784 L195.624,2.284 L125.768,2.284 L125.768,101 L195.624,101 Z M256.004,102.776 C277.612,102.776 290.192,90.788 297.148,78.504 L279.092,69.772 C274.948,77.764 266.068,84.128 256.004,84.128 C237.948,84.128 224.924,70.364 224.924,51.716 C224.924,33.068 237.948,19.304 256.004,19.304 C266.068,19.304 274.948,25.668 279.092,33.66 L297.148,24.78 C290.192,12.348 277.612,0.656 256.004,0.656 C226.256,0.656 203.316,21.228 203.316,51.716 C203.316,82.056 226.256,102.776 256.004,102.776 Z M352.644,102.776 C322.748,102.776 300.992,81.464 300.992,51.716 C300.992,21.968 322.748,0.656 352.644,0.656 C382.392,0.656 404.148,21.968 404.148,51.716 C404.148,81.464 382.392,102.776 352.644,102.776 Z M352.644,84.128 C370.848,84.128 382.54,70.068 382.54,51.716 C382.54,33.216 370.848,19.304 352.644,19.304 C334.292,19.304 322.6,33.216 322.6,51.716 C322.6,70.068 334.292,84.128 352.644,84.128 Z M503.304,101 L503.304,2.284 L482.288,2.284 L482.288,64.296 L436.556,2.284 L414.948,2.284 L414.948,101 L435.964,101 L435.964,36.62 L483.028,101 L503.304,101 Z" id="ECON" fill="#FFFFFF"></path>
                <path d="M568.608,102.924 C584.148,102.924 597.32,96.264 606.052,86.496 L606.052,52.012 L560.32,52.012 L560.32,59.56 L597.616,59.56 L597.616,83.24 C592.288,88.716 581.78,95.228 568.608,95.228 C545.52,95.228 527.464,77.172 527.464,51.716 C527.464,25.964 545.52,8.352 568.608,8.352 C581.188,8.352 592.436,13.828 599.392,22.116 L605.756,17.528 C596.728,7.168 584.888,0.656 568.608,0.656 C540.784,0.656 518.584,21.228 518.584,51.716 C518.584,82.204 540.784,102.924 568.608,102.924 Z M691.592,101 L681.38,101 L653.704,60.152 L631.948,60.152 L631.948,101 L623.512,101 L623.512,2.284 L660.364,2.284 C677.384,2.284 690.408,13.088 690.408,31.144 C690.408,49.052 677.828,58.968 663.028,59.56 L691.592,101 Z M659.624,52.456 C672.796,52.456 681.528,43.576 681.528,31.144 C681.528,18.712 672.796,9.98 659.624,9.98 L631.948,9.98 L631.948,52.456 L659.624,52.456 Z M788.676,101 L778.908,101 L769.14,76.728 L716.896,76.728 L707.128,101 L697.36,101 L737.764,2.284 L748.272,2.284 L788.676,101 Z M766.328,69.032 L743.092,11.312 L719.708,69.032 L766.328,69.032 Z M807.616,101 L799.18,101 L799.18,2.284 L836.18,2.284 C855.124,2.284 865.928,15.604 865.928,31.144 C865.928,46.684 854.976,60.004 836.18,60.004 L807.616,60.004 L807.616,101 Z M835.292,52.308 C848.464,52.308 857.048,43.428 857.048,31.144 C857.048,18.712 848.464,9.98 835.292,9.98 L807.616,9.98 L807.616,52.308 L835.292,52.308 Z M959.164,101 L959.164,2.284 L950.728,2.284 L950.728,46.388 L888.124,46.388 L888.124,2.284 L879.688,2.284 L879.688,101 L888.124,101 L888.124,54.084 L950.728,54.084 L950.728,101 L959.164,101 Z M1010.368,102.776 C1037.008,102.776 1045.444,87.532 1045.444,74.804 C1045.444,37.952 986.244,51.864 986.244,26.556 C986.244,15.9 996.16,8.352 1009.332,8.352 C1020.432,8.352 1030.496,12.2 1037.6,20.784 L1043.224,14.568 C1035.676,5.836 1024.428,0.656 1009.776,0.656 C991.868,0.656 977.364,10.868 977.364,27 C977.364,61.484 1036.564,46.388 1036.564,75.396 C1036.564,83.832 1030.792,95.08 1010.664,95.08 C996.456,95.08 986.096,87.976 979.732,80.724 L974.256,87.088 C981.804,96.116 994.088,102.776 1010.368,102.776 Z" id="GRAPHS" fill="#FFFFFF"></path>
                <g id="noun_707891_cc" transform="translate(0.000000, 1.000000)">
                    <polygon id="Shape" fill="#FFFFFF" fill-rule="nonzero" points="102 92.6846939 85.8111817 83.3693878 85.8111817 89.5726531 12.4706123 89.5726531 12.4706123 16.1326531 18.6954741 16.1326531 9.34773705 0 0 16.1326531 6.21441737 16.1326531 6.21441737 95.7967347 85.8111817 95.7967347 85.8111817 102"></polygon>
                    <path d="M22.6363087,20.5334534 C31.5456508,45.2354437 55.7293149,71.5255549 95.4366845,76.4730161" id="Path-2" stroke="#FFFFFF" stroke-width="5" stroke-linecap="round"></path>
                    <path d="M22.5910585,76.3733974 C62.3804692,71.7568173 86.2214539,44.9507446 95.5029694,20.5807221" id="Path-3" stroke="#FFFFFF" stroke-width="5" stroke-linecap="round"></path>
                </g>
            </g>
        </g>
    </g>
</svg>